<?xml version="1.0" encoding="UTF-8" standalone="no"?>
<svg
   height="256pt"
   viewBox="0 0 256 256"
   width="256pt"
   version="1.1"
   id="svg264"
   sodipodi:docname="gnome-music.svg"
   inkscape:version="1.2.2 (b0a8486541, 2022-12-01)"
   xmlns:inkscape="http://www.inkscape.org/namespaces/inkscape"
   xmlns:sodipodi="http://sodipodi.sourceforge.net/DTD/sodipodi-0.dtd"
   xmlns:xlink="http://www.w3.org/1999/xlink"
   xmlns="http://www.w3.org/2000/svg"
   xmlns:svg="http://www.w3.org/2000/svg">
  <defs
     id="defs268" />
  <sodipodi:namedview
     id="namedview266"
     pagecolor="#ffffff"
     bordercolor="#000000"
     borderopacity="0.25"
     inkscape:showpageshadow="2"
     inkscape:pageopacity="0.0"
     inkscape:pagecheckerboard="0"
     inkscape:deskcolor="#d1d1d1"
     inkscape:document-units="pt"
     showgrid="false"
     inkscape:zoom="1"
     inkscape:cx="43.5"
     inkscape:cy="43.5"
     inkscape:window-width="2560"
     inkscape:window-height="1385"
     inkscape:window-x="0"
     inkscape:window-y="0"
     inkscape:window-maximized="1"
     inkscape:current-layer="svg264" />
  <linearGradient
     id="a"
     gradientUnits="userSpaceOnUse"
     x1="31.75304"
     x2="31.75304"
     y1="56.067871"
     y2="58.713959">
    <stop
       offset="0"
       stop-opacity=".27451"
       id="stop2" />
    <stop
       offset="1"
       stop-opacity="0"
       id="stop4" />
  </linearGradient>
  <linearGradient
     id="b">
    <stop
       offset="0"
       stop-opacity=".313726"
       id="stop7" />
    <stop
       offset=".222222"
       stop-opacity=".27451"
       id="stop9" />
    <stop
       offset="1"
       stop-opacity="0"
       id="stop11" />
  </linearGradient>
  <radialGradient
     id="c"
     cx="450.90894"
     cy="189.57936"
     gradientTransform="matrix(3.5e-7,-0.156265,-0.281277,-2e-7,102.93825,127.19066)"
     gradientUnits="userSpaceOnUse"
     r="21.166656"
     xlink:href="#b" />
  <radialGradient
     id="d"
     cx="450.90894"
     cy="189.57936"
     gradientTransform="matrix(-3.5e-7,0.156265,0.281277,2e-7,-39.432194,-15.054958)"
     gradientUnits="userSpaceOnUse"
     r="21.166656"
     xlink:href="#b" />
  <radialGradient
     id="e"
     cx="450.90894"
     cy="189.57936"
     gradientTransform="matrix(-3.5e-7,-0.156265,0.281277,-2e-7,-39.432194,127.19066)"
     gradientUnits="userSpaceOnUse"
     r="21.166656"
     xlink:href="#b" />
  <radialGradient
     id="f"
     cx="450.90894"
     cy="189.57936"
     gradientTransform="matrix(3.5e-7,0.156265,-0.281277,2e-7,102.93825,-15.054959)"
     gradientUnits="userSpaceOnUse"
     r="21.166656"
     xlink:href="#b" />
  <linearGradient
     id="g">
    <stop
       offset="0"
       stop-color="#90a4ae"
       id="stop18" />
    <stop
       offset="1"
       stop-color="#78909c"
       id="stop20" />
  </linearGradient>
  <linearGradient
     id="h"
     gradientUnits="userSpaceOnUse"
     x1="30.430004"
     x2="30.430004"
     xlink:href="#g"
     y1="5.7922101"
     y2="56.067867" />
  <linearGradient
     id="i">
    <stop
       offset="0"
       stop-color="#424242"
       id="stop24" />
    <stop
       offset="1"
       stop-color="#616161"
       id="stop26" />
  </linearGradient>
  <linearGradient
     id="j"
     gradientUnits="userSpaceOnUse"
     x1="22.491741"
     x2="22.491741"
     xlink:href="#i"
     y1="56.06786"
     y2="5.792202" />
  <linearGradient
     id="k"
     gradientUnits="userSpaceOnUse"
     x1="41.014355"
     x2="41.014355"
     xlink:href="#i"
     y1="56.067867"
     y2="49.452648" />
  <linearGradient
     id="l"
     gradientUnits="userSpaceOnUse"
     x1="28.445431"
     x2="28.445431"
     y1="56.067867"
     y2="5.7922082">
    <stop
       offset="0"
       stop-color="#ef5350"
       id="stop31" />
    <stop
       offset="1"
       stop-color="#e57373"
       id="stop33" />
  </linearGradient>
  <linearGradient
     id="m">
    <stop
       offset="0"
       stop-color="#616161"
       id="stop36" />
    <stop
       offset="1"
       stop-color="#757575"
       id="stop38" />
  </linearGradient>
  <linearGradient
     id="n"
     gradientUnits="userSpaceOnUse"
     x1="32.414558"
     x2="32.414558"
     xlink:href="#m"
     y1="56.067867"
     y2="5.7922082" />
  <linearGradient
     id="o"
     gradientUnits="userSpaceOnUse"
     x1="36.383686"
     x2="36.383686"
     xlink:href="#m"
     y1="56.067867"
     y2="5.7922082" />
  <linearGradient
     id="p"
     gradientUnits="userSpaceOnUse"
     x1="40.352818"
     x2="40.352818"
     xlink:href="#m"
     y1="56.067867"
     y2="5.7922082" />
  <linearGradient
     id="q"
     gradientUnits="userSpaceOnUse"
     x1="44.321945"
     x2="44.321945"
     xlink:href="#m"
     y1="56.067867"
     y2="5.7922082" />
  <linearGradient
     id="r"
     gradientUnits="userSpaceOnUse"
     x1="48.291077"
     x2="48.291077"
     xlink:href="#m"
     y1="56.067867"
     y2="5.7922082" />
  <linearGradient
     id="s"
     gradientTransform="matrix(0.118432,0,0,0.113647,3.377237,43.543461)"
     gradientUnits="userSpaceOnUse"
     x1="150.22458"
     x2="150.22458"
     xlink:href="#g"
     y1="-332.17923"
     y2="110.20415" />
  <linearGradient
     id="t"
     gradientUnits="userSpaceOnUse"
     x1="41.675877"
     x2="41.675877"
     xlink:href="#i"
     y1="34.89917"
     y2="41.514389" />
  <linearGradient
     id="u"
     gradientUnits="userSpaceOnUse"
     x1="31.753048"
     x2="31.753048"
     xlink:href="#i"
     y1="56.067867"
     y2="5.7922101" />
  <linearGradient
     id="v"
     gradientUnits="userSpaceOnUse"
     x1="31.753056"
     x2="31.753056"
     xlink:href="#i"
     y1="9.7613478"
     y2="22.991783" />
  <linearGradient
     id="w"
     gradientUnits="userSpaceOnUse"
     x1="31.753048"
     x2="31.753048"
     xlink:href="#g"
     y1="5.7922082"
     y2="56.067867" />
  <linearGradient
     id="x"
     gradientUnits="userSpaceOnUse"
     x1="11.907393"
     x2="11.907393"
     xlink:href="#m"
     y1="52.098736"
     y2="48.129604" />
  <linearGradient
     id="y"
     gradientUnits="userSpaceOnUse"
     x1="17.22728"
     x2="17.22728"
     xlink:href="#m"
     y1="52.098736"
     y2="48.129604" />
  <linearGradient
     id="z"
     gradientUnits="userSpaceOnUse"
     x1="22.491737"
     x2="22.491737"
     xlink:href="#m"
     y1="52.098736"
     y2="48.129604" />
  <linearGradient
     id="A"
     gradientUnits="userSpaceOnUse"
     x1="24.476309"
     x2="24.476309"
     y1="41.514389"
     y2="33.576126">
    <stop
       offset="0"
       stop-color="#e0e0e0"
       id="stop54" />
    <stop
       offset="1"
       stop-color="#bdbdbd"
       id="stop56" />
  </linearGradient>
  <linearGradient
     id="B"
     gradientUnits="userSpaceOnUse"
     x1="22.304226"
     x2="26.648392"
     xlink:href="#m"
     y1="34.89917"
     y2="34.89917" />
  <linearGradient
     id="C">
    <stop
       offset="0"
       stop-color="#bdbdbd"
       id="stop60" />
    <stop
       offset="1"
       stop-color="#e0e0e0"
       id="stop62" />
  </linearGradient>
  <linearGradient
     id="D"
     gradientUnits="userSpaceOnUse"
     x1="42.149879"
     x2="45.171001"
     xlink:href="#C"
     y1="38.206779"
     y2="38.206779" />
  <linearGradient
     id="E"
     gradientUnits="userSpaceOnUse"
     x1="35.53466"
     x2="38.555782"
     xlink:href="#C"
     y1="38.206779"
     y2="38.206779" />
  <linearGradient
     id="F"
     gradientUnits="userSpaceOnUse"
     x1="11.245872"
     x2="19.184132"
     xlink:href="#m"
     y1="33.576126"
     y2="33.576126" />
  <linearGradient
     id="G">
    <stop
       offset="0"
       stop-color="#bdbdbd"
       id="stop68" />
    <stop
       offset=".493445"
       stop-color="#f5f5f5"
       id="stop70" />
    <stop
       offset="1"
       stop-color="#bdbdbd"
       id="stop72" />
  </linearGradient>
  <linearGradient
     id="H"
     gradientUnits="userSpaceOnUse"
     x1="11.907394"
     x2="18.522612"
     xlink:href="#G"
     y1="33.576126"
     y2="33.576126" />
  <linearGradient
     id="I"
     gradientUnits="userSpaceOnUse"
     x1="11.245872"
     x2="19.184132"
     xlink:href="#m"
     y1="40.191341"
     y2="40.191341" />
  <linearGradient
     id="J"
     gradientUnits="userSpaceOnUse"
     x1="11.907394"
     x2="18.522612"
     xlink:href="#G"
     y1="40.191341"
     y2="40.191341" />
  <g
     id="g644"
     transform="matrix(4.8202412,0,0,4.8202412,-25.052072,-27.019711)">
    <path
       d="m 13.230469,56.066406 h 37.046875 v 2.648438 H 13.230469 Z m 0,0"
       fill="url(#a)"
       id="path78"
       style="fill:url(#a)" />
    <path
       d="m 50.277344,56.066406 h 5.289062 v -2.644531 h -5.289062 z m 0,0"
       fill="url(#c)"
       id="path80"
       style="fill:url(#c)" />
    <path
       d="M 13.230469,56.066406 H 7.9375 v 2.648438 h 5.292969 z m 0,0"
       fill="url(#d)"
       id="path82"
       style="fill:url(#d)" />
    <path
       d="M 13.230469,56.066406 H 7.9375 v -2.644531 h 5.292969 z m 0,0"
       fill="url(#e)"
       id="path84"
       style="fill:url(#e)" />
    <path
       d="m 50.277344,56.066406 h 5.289062 v 2.648438 h -5.289062 z m 0,0"
       fill="url(#f)"
       id="path86"
       style="fill:url(#f)" />
    <path
       d="m 10.585938,5.792969 h 42.335937 c 1.460937,0 2.644531,1.183593 2.644531,2.644531 v 44.984375 c 0,1.460937 -1.183594,2.644531 -2.644531,2.644531 H 10.585938 c -1.464844,0 -2.648438,-1.183594 -2.648438,-2.644531 V 8.4375 c 0,-1.460938 1.183594,-2.644531 2.648438,-2.644531 z m 0,0"
       fill="url(#h)"
       id="path88"
       style="fill:url(#h)" />
    <path
       d="M 10.585938,5.792969 C 9.117188,5.792969 7.9375,6.972656 7.9375,8.4375 v 0.332031 c 0,-1.464843 1.179688,-2.648437 2.648438,-2.648437 h 42.335937 c 1.464844,0 2.644531,1.183594 2.644531,2.648437 V 8.4375 c 0,-1.464844 -1.179687,-2.644531 -2.644531,-2.644531 z m 0,0"
       fill="#e6e6e6"
       fill-opacity="0.588235"
       id="path90" />
    <path
       d="m 29.105469,30.929688 h 22.492187 c 0.730469,0 1.324219,0.59375 1.324219,1.324218 v 11.90625 c 0,0.730469 -0.59375,1.324219 -1.324219,1.324219 H 29.105469 c -0.730469,0 -1.320313,-0.59375 -1.320313,-1.324219 v -11.90625 c 0,-0.730468 0.589844,-1.324218 1.320313,-1.324218 z m 0,0"
       fill="url(#j)"
       id="path92"
       style="fill:url(#j)" />
    <path
       d="M 10.585938,5.792969 C 9.117188,5.792969 7.9375,6.972656 7.9375,8.4375 v 0.992188 c 0,-1.464844 1.179688,-2.644532 2.648438,-2.644532 h 42.335937 c 1.464844,0 2.644531,1.179688 2.644531,2.644532 V 8.4375 c 0,-1.464844 -1.179687,-2.644531 -2.644531,-2.644531 z m 0,0"
       fill="#ffffff"
       fill-opacity="0.392157"
       id="path94" />
    <path
       d="m 10.585938,56.066406 c -1.46875,0 -2.648438,-1.179687 -2.648438,-2.644531 v -0.992187 c 0,1.464843 1.179688,2.644531 2.648438,2.644531 h 42.335937 c 1.464844,0 2.644531,-1.179688 2.644531,-2.644531 v 0.992187 c 0,1.464844 -1.179687,2.644531 -2.644531,2.644531 z m 0,0"
       fill-opacity="0.235294"
       id="path96" />
    <path
       d="M 10.585938,5.605469 C 9.019531,5.605469 7.75,6.871094 7.75,8.4375 v 44.984375 c 0,1.566406 1.269531,2.832031 2.835938,2.832031 h 42.335937 c 1.566406,0 2.832031,-1.265625 2.832031,-2.832031 V 8.4375 c 0,-1.566406 -1.265625,-2.832031 -2.832031,-2.832031 z m 0,0.375 h 42.335937 c 1.363281,0 2.457031,1.09375 2.457031,2.457031 v 44.984375 c 0,1.367187 -1.09375,2.457031 -2.457031,2.457031 H 10.585938 C 9.21875,55.878906 8.125,54.789062 8.125,53.421875 V 8.4375 c 0,-1.363281 1.09375,-2.457031 2.460938,-2.457031 z m 0,0"
       fill="#212121"
       id="path98" />
    <path
       d="m 29.105469,48.128906 h 23.15625 c 0.363281,0 0.660156,0.296875 0.660156,0.664063 v 6.613281 c 0,0.367188 -0.296875,0.660156 -0.660156,0.660156 h -23.15625 c -0.363281,0 -0.660157,-0.292968 -0.660157,-0.660156 v -6.613281 c 0,-0.367188 0.296876,-0.664063 0.660157,-0.664063 z m 0,0"
       fill="url(#k)"
       id="path100"
       style="fill:url(#k)" />
    <path
       d="m 29.769531,48.792969 h 1.984375 c 0.363282,0 0.660156,0.292969 0.660156,0.660156 v 5.953125 c 0,0.367188 -0.296874,0.660156 -0.660156,0.660156 h -1.984375 c -0.367187,0 -0.664062,-0.292968 -0.664062,-0.660156 v -5.953125 c 0,-0.367187 0.296875,-0.660156 0.664062,-0.660156 z m 0,0"
       fill="url(#l)"
       id="path102"
       style="fill:url(#l)" />
    <path
       d="m 29.769531,48.792969 c -0.367187,0 -0.664062,0.292969 -0.664062,0.660156 v 0.660156 c 0,-0.367187 0.296875,-0.660156 0.664062,-0.660156 h 1.984375 c 0.367188,0 0.660156,0.292969 0.660156,0.660156 v -0.660156 c 0,-0.367187 -0.292968,-0.660156 -0.660156,-0.660156 z m 0,0"
       fill="#ffffff"
       fill-opacity="0.392157"
       id="path104" />
    <path
       d="m 29.769531,56.066406 c -0.367187,0 -0.664062,-0.292968 -0.664062,-0.660156 v -0.660156 c 0,0.363281 0.296875,0.660156 0.664062,0.660156 h 1.984375 c 0.367188,0 0.660156,-0.296875 0.660156,-0.660156 v 0.660156 c 0,0.367188 -0.292968,0.660156 -0.660156,0.660156 z m 0,0"
       fill-opacity="0.235294"
       id="path106" />
    <path
       d="m 29.769546,48.79298 h 1.984376 c 0.363282,0 0.660157,0.292968 0.660157,0.660156 v 5.953128 c 0,0.367187 -0.296875,0.660156 -0.660157,0.660156 h -1.984376 c -0.367187,0 -0.664062,-0.292969 -0.664062,-0.660156 v -5.953128 c 0,-0.367188 0.296875,-0.660156 0.664062,-0.660156 z m 0,0"
       fill="none"
       stroke="#212121"
       stroke-linecap="round"
       stroke-linejoin="round"
       stroke-width="0.375036"
       id="path108" />
    <path
       d="m 33.738281,48.792969 h 1.984375 c 0.363282,0 0.660156,0.292969 0.660156,0.660156 v 5.953125 c 0,0.367188 -0.296874,0.660156 -0.660156,0.660156 h -1.984375 c -0.367187,0 -0.664062,-0.292968 -0.664062,-0.660156 v -5.953125 c 0,-0.367187 0.296875,-0.660156 0.664062,-0.660156 z m 0,0"
       fill="url(#n)"
       id="path110"
       style="fill:url(#n)" />
    <path
       d="m 33.738281,48.792969 c -0.367187,0 -0.664062,0.292969 -0.664062,0.660156 v 0.660156 c 0,-0.367187 0.296875,-0.660156 0.664062,-0.660156 h 1.984375 c 0.367188,0 0.660156,0.292969 0.660156,0.660156 v -0.660156 c 0,-0.367187 -0.292968,-0.660156 -0.660156,-0.660156 z m 0,0"
       fill="#ffffff"
       fill-opacity="0.392157"
       id="path112" />
    <path
       d="m 33.738281,56.066406 c -0.367187,0 -0.664062,-0.292968 -0.664062,-0.660156 v -0.660156 c 0,0.363281 0.296875,0.660156 0.664062,0.660156 h 1.984375 c 0.367188,0 0.660156,-0.296875 0.660156,-0.660156 v 0.660156 c 0,0.367188 -0.292968,0.660156 -0.660156,0.660156 z m 0,0"
       fill-opacity="0.235294"
       id="path114" />
    <path
       d="m 33.738297,48.79298 h 1.984375 c 0.363281,0 0.660157,0.292968 0.660157,0.660156 v 5.953128 c 0,0.367187 -0.296876,0.660156 -0.660157,0.660156 h -1.984375 c -0.367188,0 -0.664063,-0.292969 -0.664063,-0.660156 v -5.953128 c 0,-0.367188 0.296875,-0.660156 0.664063,-0.660156 z m 0,0"
       fill="none"
       stroke="#212121"
       stroke-linecap="round"
       stroke-linejoin="round"
       stroke-width="0.375036"
       id="path116" />
    <path
       d="m 37.707031,48.792969 h 1.984375 c 0.363282,0 0.660156,0.292969 0.660156,0.660156 v 5.953125 c 0,0.367188 -0.296874,0.660156 -0.660156,0.660156 h -1.984375 c -0.367187,0 -0.660156,-0.292968 -0.660156,-0.660156 v -5.953125 c 0,-0.367187 0.292969,-0.660156 0.660156,-0.660156 z m 0,0"
       fill="url(#o)"
       id="path118"
       style="fill:url(#o)" />
    <path
       d="m 37.707031,48.792969 c -0.367187,0 -0.660156,0.292969 -0.660156,0.660156 v 0.660156 c 0,-0.367187 0.292969,-0.660156 0.660156,-0.660156 h 1.984375 c 0.367188,0 0.660156,0.292969 0.660156,0.660156 v -0.660156 c 0,-0.367187 -0.292968,-0.660156 -0.660156,-0.660156 z m 0,0"
       fill="#ffffff"
       fill-opacity="0.392157"
       id="path120" />
    <path
       d="m 37.707031,56.066406 c -0.367187,0 -0.660156,-0.292968 -0.660156,-0.660156 v -0.660156 c 0,0.363281 0.292969,0.660156 0.660156,0.660156 h 1.984375 c 0.367188,0 0.660156,-0.296875 0.660156,-0.660156 v 0.660156 c 0,0.367188 -0.292968,0.660156 -0.660156,0.660156 z m 0,0"
       fill-opacity="0.235294"
       id="path122" />
    <path
       d="m 37.707047,48.79298 h 1.984376 c 0.363281,0 0.660157,0.292968 0.660157,0.660156 v 5.953128 c 0,0.367187 -0.296876,0.660156 -0.660157,0.660156 h -1.984376 c -0.367188,0 -0.660157,-0.292969 -0.660157,-0.660156 v -5.953128 c 0,-0.367188 0.292969,-0.660156 0.660157,-0.660156 z m 0,0"
       fill="none"
       stroke="#212121"
       stroke-linecap="round"
       stroke-linejoin="round"
       stroke-width="0.375036"
       id="path124" />
    <path
       d="m 41.675781,48.792969 h 1.984375 c 0.367188,0 0.660156,0.292969 0.660156,0.660156 v 5.953125 c 0,0.367188 -0.292968,0.660156 -0.660156,0.660156 h -1.984375 c -0.367187,0 -0.660156,-0.292968 -0.660156,-0.660156 v -5.953125 c 0,-0.367187 0.292969,-0.660156 0.660156,-0.660156 z m 0,0"
       fill="url(#p)"
       id="path126"
       style="fill:url(#p)" />
    <path
       d="m 41.675781,48.792969 c -0.367187,0 -0.660156,0.292969 -0.660156,0.660156 v 0.660156 c 0,-0.367187 0.292969,-0.660156 0.660156,-0.660156 h 1.984375 c 0.367188,0 0.660156,0.292969 0.660156,0.660156 v -0.660156 c 0,-0.367187 -0.292968,-0.660156 -0.660156,-0.660156 z m 0,0"
       fill="#ffffff"
       fill-opacity="0.392157"
       id="path128" />
    <path
       d="m 41.675781,56.066406 c -0.367187,0 -0.660156,-0.292968 -0.660156,-0.660156 v -0.660156 c 0,0.363281 0.292969,0.660156 0.660156,0.660156 h 1.984375 c 0.367188,0 0.660156,-0.296875 0.660156,-0.660156 v 0.660156 c 0,0.367188 -0.292968,0.660156 -0.660156,0.660156 z m 0,0"
       fill-opacity="0.235294"
       id="path130" />
    <path
       d="m 41.675796,48.79298 h 1.984377 c 0.367187,0 0.660156,0.292968 0.660156,0.660156 v 5.953128 c 0,0.367187 -0.292969,0.660156 -0.660156,0.660156 h -1.984377 c -0.367188,0 -0.660156,-0.292969 -0.660156,-0.660156 v -5.953128 c 0,-0.367188 0.292968,-0.660156 0.660156,-0.660156 z m 0,0"
       fill="none"
       stroke="#212121"
       stroke-linecap="round"
       stroke-linejoin="round"
       stroke-width="0.375036"
       id="path132" />
    <path
       d="m 45.644531,48.792969 h 1.984375 c 0.367188,0 0.664063,0.292969 0.664063,0.660156 v 5.953125 c 0,0.367188 -0.296875,0.660156 -0.664063,0.660156 h -1.984375 c -0.363281,0 -0.660156,-0.292968 -0.660156,-0.660156 v -5.953125 c 0,-0.367187 0.296875,-0.660156 0.660156,-0.660156 z m 0,0"
       fill="url(#q)"
       id="path134"
       style="fill:url(#q)" />
    <path
       d="m 45.644531,48.792969 c -0.367187,0 -0.660156,0.292969 -0.660156,0.660156 v 0.660156 c 0,-0.367187 0.292969,-0.660156 0.660156,-0.660156 h 1.984375 c 0.367188,0 0.664063,0.292969 0.664063,0.660156 v -0.660156 c 0,-0.367187 -0.296875,-0.660156 -0.664063,-0.660156 z m 0,0"
       fill="#ffffff"
       fill-opacity="0.392157"
       id="path136" />
    <path
       d="m 45.644531,56.066406 c -0.367187,0 -0.660156,-0.292968 -0.660156,-0.660156 v -0.660156 c 0,0.363281 0.292969,0.660156 0.660156,0.660156 h 1.984375 c 0.367188,0 0.664063,-0.296875 0.664063,-0.660156 v 0.660156 c 0,0.367188 -0.296875,0.660156 -0.664063,0.660156 z m 0,0"
       fill-opacity="0.235294"
       id="path138" />
    <path
       d="m 45.644546,48.79298 h 1.984377 c 0.367187,0 0.664062,0.292968 0.664062,0.660156 v 5.953128 c 0,0.367187 -0.296875,0.660156 -0.664062,0.660156 h -1.984377 c -0.363281,0 -0.660156,-0.292969 -0.660156,-0.660156 v -5.953128 c 0,-0.367188 0.296875,-0.660156 0.660156,-0.660156 z m 0,0"
       fill="none"
       stroke="#212121"
       stroke-linecap="round"
       stroke-linejoin="round"
       stroke-width="0.375036"
       id="path140" />
    <path
       d="m 49.613281,48.792969 h 1.984375 c 0.367188,0 0.664063,0.292969 0.664063,0.660156 v 5.953125 c 0,0.367188 -0.296875,0.660156 -0.664063,0.660156 h -1.984375 c -0.363281,0 -0.660156,-0.292968 -0.660156,-0.660156 v -5.953125 c 0,-0.367187 0.296875,-0.660156 0.660156,-0.660156 z m 0,0"
       fill="url(#r)"
       id="path142"
       style="fill:url(#r)" />
    <path
       d="m 49.613281,48.792969 c -0.367187,0 -0.660156,0.292969 -0.660156,0.660156 v 0.660156 c 0,-0.367187 0.292969,-0.660156 0.660156,-0.660156 h 1.984375 c 0.367188,0 0.664063,0.292969 0.664063,0.660156 v -0.660156 c 0,-0.367187 -0.296875,-0.660156 -0.664063,-0.660156 z m 0,0"
       fill="#ffffff"
       fill-opacity="0.392157"
       id="path144" />
    <path
       d="m 49.613281,56.066406 c -0.367187,0 -0.660156,-0.292968 -0.660156,-0.660156 v -0.660156 c 0,0.363281 0.292969,0.660156 0.660156,0.660156 h 1.984375 c 0.367188,0 0.664063,-0.296875 0.664063,-0.660156 v 0.660156 c 0,0.367188 -0.296875,0.660156 -0.664063,0.660156 z m 0,0"
       fill-opacity="0.235294"
       id="path146" />
    <path
       d="m 49.613296,48.79298 h 1.984376 c 0.367187,0 0.664063,0.292968 0.664063,0.660156 v 5.953128 c 0,0.367187 -0.296876,0.660156 -0.664063,0.660156 h -1.984376 c -0.363281,0 -0.660157,-0.292969 -0.660157,-0.660156 v -5.953128 c 0,-0.367188 0.296876,-0.660156 0.660157,-0.660156 z m 0,0"
       fill="none"
       stroke="#212121"
       stroke-linecap="round"
       stroke-linejoin="round"
       stroke-width="0.375036"
       id="path148" />
    <path
       d="m 29.105484,48.128916 h 23.156261 c 0.363282,0 0.660156,0.296876 0.660156,0.664064 v 6.613284 c 0,0.367187 -0.296874,0.660156 -0.660156,0.660156 H 29.105484 c -0.363283,0 -0.660157,-0.292969 -0.660157,-0.660156 V 48.79298 c 0,-0.367188 0.296874,-0.664064 0.660157,-0.664064 z m 0,0"
       fill="none"
       stroke="#212121"
       stroke-linecap="round"
       stroke-linejoin="round"
       stroke-width="0.375036"
       id="path150" />
    <path
       d="m 29.105484,30.929689 h 22.492199 c 0.730469,0 1.324218,0.59375 1.324218,1.32422 v 11.906256 c 0,0.730469 -0.593749,1.32422 -1.324218,1.32422 H 29.105484 c -0.730469,0 -1.320313,-0.593751 -1.320313,-1.32422 V 32.253909 c 0,-0.73047 0.589844,-1.32422 1.320313,-1.32422 z m 0,0"
       fill="none"
       stroke="#212121"
       stroke-linecap="round"
       stroke-width="0.375036"
       id="path152" />
    <path
       d="m 29.105469,31.261719 h 22.492187 c 0.550782,0 0.992188,0.441406 0.992188,0.992187 v 11.90625 c 0,0.546875 -0.441406,0.992188 -0.992188,0.992188 H 29.105469 c -0.546875,0 -0.992188,-0.445313 -0.992188,-0.992188 v -11.90625 c 0,-0.550781 0.445313,-0.992187 0.992188,-0.992187 z m 0,0"
       fill="url(#s)"
       id="path154"
       style="fill:url(#s)" />
    <path
       d="m 35.0625,34.898438 h 10.582031 c 0.367188,0 0.660157,0.296874 0.660157,0.664062 v 5.289062 c 0,0.367188 -0.292969,0.664063 -0.660157,0.664063 H 35.0625 c -0.367188,0 -0.664062,-0.296875 -0.664062,-0.664063 V 35.5625 c 0,-0.367188 0.296874,-0.664062 0.664062,-0.664062 z m 0,0"
       fill="url(#t)"
       id="path156"
       style="fill:url(#t)" />
    <path
       d="m 10.914062,8.4375 h 41.675782 c 0.550781,0 0.992187,0.445312 0.992187,0.992188 v 15.214843 c 0,0.550781 -0.441406,0.992188 -0.992187,0.992188 H 10.914062 c -0.546874,0 -0.992187,-0.441407 -0.992187,-0.992188 V 9.429688 c 0,-0.546876 0.445313,-0.992188 0.992187,-0.992188 z m 0,0"
       fill="url(#u)"
       id="path158"
       style="fill:url(#u)" />
    <path
       d="m 32.414062,9.761719 c 6.210938,0 11.246094,3.019531 11.246094,6.746093 0,3.726563 -5.035156,6.75 -11.246094,6.75 -6.210937,0 -11.246093,-3.023437 -11.246093,-6.75 0,-3.726562 5.035156,-6.746093 11.246093,-6.746093 z m 0,0"
       fill="url(#v)"
       id="path160"
       style="fill:url(#v)" />
    <path
       d="m 9.921875,9.761719 v 0.660156 H 53.582031 V 9.761719 Z m 0,1.984375 v 0.660156 h 43.660156 v -0.660156 z m 0,1.984375 v 0.660156 h 43.660156 v -0.660156 z m 0,1.984375 V 16.375 h 43.660156 v -0.660156 z m 0,1.984375 v 0.660156 h 43.660156 v -0.660156 z m 0,1.984375 v 0.660156 h 43.660156 v -0.660156 z m 0,1.984375 v 0.664062 h 43.660156 v -0.664062 z m 0,1.984375 v 0.664062 h 43.660156 v -0.664062 z m 0,0"
       fill="url(#w)"
       id="path162"
       style="fill:url(#w)" />
    <path
       d="m 12.582031,50.113281 -2.480469,0.226563 c 0.04688,0.519531 0.25,0.992187 0.5625,1.371094 z m 0,0 1.914063,1.597657 C 14.8125,51.332031 15.015625,50.859375 15.0625,50.339844 Z m 0,0 0.226563,2.480469 c 0.519531,-0.04687 0.992187,-0.25 1.367187,-0.566406 z m 0,0 -1.597656,1.917969 c 0.378906,0.3125 0.851563,0.515625 1.371094,0.5625 z m 0,0"
       fill="#4db6ac"
       id="path164" />
    <path
       d="m 12.355469,47.632812 c -0.519531,0.04688 -0.992188,0.25 -1.371094,0.566407 l 1.585937,1.902343 v -0.09766 z m -1.6875,0.886719 c -0.316407,0.375 -0.519531,0.847657 -0.566407,1.367188 l 2.46875,0.226562 v -0.0078 z m 0,0"
       fill="#ffa726"
       id="path166" />
    <path
       d="m 12.808594,47.632812 -0.226563,2.480469 2.480469,-0.226562 c -0.04687,-0.519531 -0.25,-0.992188 -0.566406,-1.367188 l -1.914063,1.59375 1.59375,-1.914062 c -0.375,-0.316407 -0.847656,-0.519531 -1.367187,-0.566407 z m -0.226563,2.480469 -0.01172,-0.109375 v 0.09766 l 0.01172,0.01172 -0.01172,-0.0078 v 0.0078 z m 0,0"
       fill="#ef5350"
       id="path168" />
    <path
       d="m 12.570312,48.128906 c 1.09375,0 1.984376,0.890625 1.984376,1.984375 0,1.097657 -0.890626,1.984375 -1.984376,1.984375 -1.097656,0 -1.984374,-0.886718 -1.984374,-1.984375 0,-1.09375 0.886718,-1.984375 1.984374,-1.984375 z m 0,0"
       fill="url(#x)"
       id="path170"
       style="fill:url(#x)" />
    <path
       d="m 10.613281,50.445312 c -0.01953,0.105469 -0.02734,0.21875 -0.02734,0.332032 0,1.097656 0.882812,1.984375 1.984374,1.984375 1.097657,0 1.984376,-0.886719 1.984376,-1.984375 0,-0.113282 -0.01172,-0.226563 -0.02734,-0.332032 -0.160156,0.941407 -0.972656,1.652344 -1.957032,1.652344 -0.988281,0 -1.800781,-0.710937 -1.957031,-1.652344 z m 0,0"
       fill-opacity="0.235294"
       id="path172" />
    <path
       d="m 12.570312,48.128906 c -1.101562,0 -1.984374,0.886719 -1.984374,1.984375 0,0.08594 0.0039,0.167969 0.01562,0.25 0.121094,-0.980469 0.953126,-1.738281 1.96875,-1.738281 1.015626,0 1.847657,0.757812 1.96875,1.738281 0.0078,-0.08203 0.01563,-0.164062 0.01563,-0.25 0,-1.097656 -0.886719,-1.984375 -1.984376,-1.984375 z m 0,0"
       fill="#ffffff"
       fill-opacity="0.392157"
       id="path174" />
    <path
       d="m 12.570319,48.128916 c 1.09375,0 1.984376,0.890625 1.984376,1.984377 0,1.097656 -0.890626,1.984375 -1.984376,1.984375 -1.097657,0 -1.984376,-0.886719 -1.984376,-1.984375 0,-1.093752 0.886719,-1.984377 1.984376,-1.984377 z m 0,0"
       fill="none"
       stroke="#212121"
       stroke-linecap="round"
       stroke-linejoin="round"
       stroke-width="0.375036"
       id="path176" />
    <path
       d="m 17.890625,50.113281 -2.480469,0.226563 c 0.04687,0.519531 0.25,0.992187 0.5625,1.371094 z m 0,0 1.914063,1.597657 c 0.316406,-0.378907 0.519531,-0.851563 0.566406,-1.371094 z m 0,0 0.222656,2.480469 c 0.523438,-0.04687 0.996094,-0.25 1.371094,-0.566406 z m 0,0 -1.597656,1.917969 c 0.378906,0.3125 0.851562,0.515625 1.371093,0.5625 z m 0,0"
       fill="#4db6ac"
       id="path178" />
    <path
       d="m 17.664062,47.632812 c -0.519531,0.04688 -0.992187,0.25 -1.371093,0.566407 l 1.585937,1.902343 v -0.09766 z m -1.6875,0.886719 c -0.316406,0.375 -0.519531,0.847657 -0.566406,1.367188 l 2.46875,0.226562 v -0.0078 z m 0,0"
       fill="#ffa726"
       id="path180" />
    <path
       d="m 18.113281,47.632812 -0.222656,2.480469 2.480469,-0.226562 c -0.04687,-0.519531 -0.25,-0.992188 -0.566406,-1.367188 l -1.914063,1.59375 1.59375,-1.914062 c -0.375,-0.316407 -0.847656,-0.519531 -1.371094,-0.566407 z m -0.222656,2.480469 -0.01172,-0.109375 v 0.09766 l 0.01172,0.01172 -0.01172,-0.0078 v 0.0078 z m 0,0"
       fill="#ef5350"
       id="path182" />
    <path
       d="m 17.890625,48.128906 c 1.09375,0 1.984375,0.890625 1.984375,1.984375 0,1.097657 -0.890625,1.984375 -1.984375,1.984375 -1.097656,0 -1.988281,-0.886718 -1.988281,-1.984375 0,-1.09375 0.890625,-1.984375 1.988281,-1.984375 z m 0,0"
       fill="url(#y)"
       id="path184"
       style="fill:url(#y)" />
    <path
       d="m 15.933594,50.445312 c -0.01953,0.105469 -0.03125,0.21875 -0.03125,0.332032 0,1.097656 0.886718,1.984375 1.988281,1.984375 1.097656,0 1.984375,-0.886719 1.984375,-1.984375 0,-0.113282 -0.01172,-0.226563 -0.03125,-0.332032 -0.15625,0.941407 -0.96875,1.652344 -1.953125,1.652344 -0.988281,0 -1.800781,-0.710937 -1.957031,-1.652344 z m 0,0"
       fill-opacity="0.235294"
       id="path186" />
    <path
       d="m 17.890625,48.128906 c -1.101563,0 -1.988281,0.886719 -1.988281,1.984375 0,0.08594 0.0078,0.167969 0.01953,0.25 C 16.042969,49.382812 16.875,48.625 17.890625,48.625 c 1.015625,0 1.847656,0.757812 1.96875,1.738281 0.0078,-0.08203 0.01563,-0.164062 0.01563,-0.25 0,-1.097656 -0.886719,-1.984375 -1.984375,-1.984375 z m 0,0"
       fill="#ffffff"
       fill-opacity="0.392157"
       id="path188" />
    <path
       d="m 17.890631,48.128916 c 1.093751,0 1.984377,0.890625 1.984377,1.984377 0,1.097656 -0.890626,1.984375 -1.984377,1.984375 -1.097656,0 -1.988282,-0.886719 -1.988282,-1.984375 0,-1.093752 0.890626,-1.984377 1.988282,-1.984377 z m 0,0"
       fill="none"
       stroke="#212121"
       stroke-linecap="round"
       stroke-linejoin="round"
       stroke-width="0.375036"
       id="path190" />
    <path
       d="m 23.164062,50.113281 -2.480468,0.226563 c 0.04687,0.519531 0.25,0.992187 0.566406,1.371094 z m 0,0 1.914063,1.597657 c 0.316406,-0.378907 0.519531,-0.851563 0.566406,-1.371094 z m 0,0 0.226563,2.480469 c 0.519531,-0.04687 0.992187,-0.25 1.367187,-0.566406 z m 0,0 -1.597656,1.917969 c 0.378906,0.3125 0.851563,0.515625 1.371094,0.5625 z m 0,0"
       fill="#4db6ac"
       id="path192" />
    <path
       d="m 22.9375,47.632812 c -0.519531,0.04688 -0.992188,0.25 -1.371094,0.566407 l 1.585938,1.902343 v -0.09766 z M 21.25,48.519531 c -0.316406,0.375 -0.519531,0.847657 -0.566406,1.367188 l 2.46875,0.226562 v -0.0078 z m 0,0"
       fill="#ffa726"
       id="path194" />
    <path
       d="m 23.390625,47.632812 -0.226563,2.480469 2.480469,-0.226562 c -0.04687,-0.519531 -0.25,-0.992188 -0.566406,-1.367188 l -1.914063,1.59375 1.59375,-1.914062 c -0.375,-0.316407 -0.847656,-0.519531 -1.367187,-0.566407 z m -0.226563,2.480469 -0.01172,-0.109375 v 0.09766 l 0.01172,0.01172 -0.01172,-0.0078 v 0.0078 z m 0,0"
       fill="#ef5350"
       id="path196" />
    <path
       d="m 23.152344,48.128906 c 1.097656,0 1.984375,0.890625 1.984375,1.984375 0,1.097657 -0.886719,1.984375 -1.984375,1.984375 -1.09375,0 -1.984375,-0.886718 -1.984375,-1.984375 0,-1.09375 0.890625,-1.984375 1.984375,-1.984375 z m 0,0"
       fill="url(#z)"
       id="path198"
       style="fill:url(#z)" />
    <path
       d="m 21.195312,50.445312 c -0.01562,0.105469 -0.02734,0.21875 -0.02734,0.332032 0,1.097656 0.886719,1.984375 1.984375,1.984375 1.101562,0 1.984375,-0.886719 1.984375,-1.984375 0,-0.113282 -0.0078,-0.226563 -0.02734,-0.332032 -0.15625,0.941407 -0.96875,1.652344 -1.957031,1.652344 -0.984375,0 -1.800782,-0.710937 -1.957032,-1.652344 z m 0,0"
       fill-opacity="0.235294"
       id="path200" />
    <path
       d="m 23.152344,48.128906 c -1.097656,0 -1.984375,0.886719 -1.984375,1.984375 0,0.08594 0.0078,0.167969 0.01563,0.25 0.121094,-0.980469 0.953125,-1.738281 1.96875,-1.738281 1.015625,0 1.847656,0.757812 1.96875,1.738281 0.01172,-0.08203 0.01563,-0.164062 0.01563,-0.25 0,-1.097656 -0.882813,-1.984375 -1.984375,-1.984375 z m 0,0"
       fill="#ffffff"
       fill-opacity="0.392157"
       id="path202" />
    <path
       d="m 23.15235,48.128916 c 1.097657,0 1.984377,0.890625 1.984377,1.984377 0,1.097656 -0.88672,1.984375 -1.984377,1.984375 -1.09375,0 -1.984376,-0.886719 -1.984376,-1.984375 0,-1.093752 0.890626,-1.984377 1.984376,-1.984377 z m 0,0"
       fill="none"
       stroke="#212121"
       stroke-linecap="round"
       stroke-linejoin="round"
       stroke-width="0.375036"
       id="path204" />
    <path
       d="m 9.92188,46.14454 h 16.539071 c 0.367188,0 0.660156,0.296875 0.660156,0.660158 v 6.61719 c 0,0.367188 -0.292968,0.660157 -0.660156,0.660157 H 9.92188 c -0.3632815,0 -0.6601566,-0.292969 -0.6601566,-0.660157 v -6.61719 c 0,-0.363283 0.2968751,-0.660158 0.6601566,-0.660158 z m 0,0"
       fill="none"
       stroke="#212121"
       stroke-linecap="round"
       stroke-linejoin="round"
       stroke-width="0.375036"
       id="path206" />
    <path
       d="m 23.152344,33.574219 h 2.648437 c 0.363281,0 0.660157,0.296875 0.660157,0.664062 v 6.613281 c 0,0.367188 -0.296876,0.664063 -0.660157,0.664063 h -2.648437 c -0.363282,0 -0.660156,-0.296875 -0.660156,-0.664063 v -6.613281 c 0,-0.367187 0.296874,-0.664062 0.660156,-0.664062 z m 0,0"
       fill="url(#A)"
       id="path208"
       style="fill:url(#A)" />
    <path
       d="m 23.152344,33.574219 h 2.648437 c 0.363281,0 0.660157,0.296875 0.660157,0.664062 v 6.613281 c 0,0.367188 -0.296876,0.664063 -0.660157,0.664063 h -2.648437 c -0.363282,0 -0.660156,-0.296875 -0.660156,-0.664063 v -6.613281 c 0,-0.367187 0.296874,-0.664062 0.660156,-0.664062 z m 0,0"
       fill-opacity="0.588235"
       id="path210" />
    <path
       d="m 23.152344,33.574219 h 2.648437 c 0.363281,0 0.660157,0.296875 0.660157,0.664062 V 35.5625 c 0,0.363281 -0.296876,0.660156 -0.660157,0.660156 h -2.648437 c -0.363282,0 -0.660156,-0.296875 -0.660156,-0.660156 v -1.324219 c 0,-0.367187 0.296874,-0.664062 0.660156,-0.664062 z m 0,0"
       fill="url(#B)"
       id="path212"
       style="fill:url(#B)" />
    <path
       d="m 23.152355,33.574222 h 2.648439 c 0.363281,0 0.660157,0.296875 0.660157,0.664063 v 6.613284 c 0,0.367187 -0.296876,0.664063 -0.660157,0.664063 h -2.648439 c -0.363281,0 -0.660156,-0.296876 -0.660156,-0.664063 v -6.613284 c 0,-0.367188 0.296875,-0.664063 0.660156,-0.664063 z m 0,0"
       fill="none"
       stroke="#212121"
       stroke-linecap="round"
       stroke-linejoin="round"
       stroke-width="0.375036"
       id="path214" />
    <path
       d="m 23.152344,33.574219 c -0.367188,0 -0.660156,0.296875 -0.660156,0.664062 v 0.660157 c 0,-0.367188 0.292968,-0.660157 0.660156,-0.660157 h 2.648437 c 0.363281,0 0.660157,0.292969 0.660157,0.660157 v -0.660157 c 0,-0.367187 -0.296876,-0.664062 -0.660157,-0.664062 z m 0,0"
       fill="#ffffff"
       fill-opacity="0.392157"
       id="path216" />
    <path
       d="m 23.152344,36.882812 c -0.367188,0 -0.660156,-0.292968 -0.660156,-0.660156 V 35.5625 c 0,0.363281 0.292968,0.660156 0.660156,0.660156 h 2.648437 c 0.363281,0 0.660157,-0.296875 0.660157,-0.660156 v 0.660156 c 0,0.367188 -0.296876,0.660156 -0.660157,0.660156 z m 0,0"
       fill-opacity="0.235294"
       id="path218" />
    <path
       d="m 23.152355,33.574222 h 2.648439 c 0.363281,0 0.660157,0.296875 0.660157,0.664063 v 1.324219 c 0,0.363281 -0.296876,0.660157 -0.660157,0.660157 h -2.648439 c -0.363281,0 -0.660156,-0.296876 -0.660156,-0.660157 v -1.324219 c 0,-0.367188 0.296875,-0.664063 0.660156,-0.664063 z m 0,0"
       fill="none"
       stroke="#212121"
       stroke-linecap="round"
       stroke-linejoin="round"
       stroke-width="0.375036"
       id="path220" />
    <path
       d="m 43.660156,36.882812 c 0.730469,0 1.324219,0.59375 1.324219,1.324219 0,0.730469 -0.59375,1.324219 -1.324219,1.324219 -0.730468,0 -1.324218,-0.59375 -1.324218,-1.324219 0,-0.730469 0.59375,-1.324219 1.324218,-1.324219 z m 0,0"
       fill="url(#D)"
       id="path222"
       style="fill:url(#D)" />
    <path
       d="m 37.046875,36.882812 c 0.730469,0 1.320313,0.59375 1.320313,1.324219 0,0.730469 -0.589844,1.324219 -1.320313,1.324219 -0.730469,0 -1.324219,-0.59375 -1.324219,-1.324219 0,-0.730469 0.59375,-1.324219 1.324219,-1.324219 z m 0,0"
       fill="url(#E)"
       id="path224"
       style="fill:url(#E)" />
    <g
       transform="matrix(0.125012,0,0,0.125012,0,26.877566)"
       id="g232">
      <path
         d="m 280.47322,64.160841 h 84.64816 c 2.93722,0 5.28075,2.374774 5.28075,5.311993 v 42.308456 c 0,2.93722 -2.34353,5.312 -5.28075,5.312 h -84.64816 c -2.93722,0 -5.312,-2.37478 -5.312,-5.312 V 69.472834 c 0,-2.937219 2.37478,-5.311993 5.312,-5.311993 z m 0,0"
         fill="none"
         stroke="#212121"
         stroke-linecap="round"
         stroke-linejoin="round"
         stroke-width="3"
         id="path226" />
      <path
         d="m 349.2479,80.034326 c 5.84319,0 10.59274,4.749546 10.59274,10.592738 0,5.843192 -4.74955,10.592736 -10.59274,10.592736 -5.84319,0 -10.59274,-4.749544 -10.59274,-10.592736 0,-5.843192 4.74955,-10.592738 10.59274,-10.592738 z m 0,0"
         fill="none"
         stroke="#212121"
         stroke-linecap="round"
         stroke-linejoin="round"
         stroke-width="3"
         id="path228" />
      <path
         d="m 296.3467,80.034326 c 5.84319,0 10.56149,4.749546 10.56149,10.592738 0,5.843192 -4.7183,10.592736 -10.56149,10.592736 -5.84319,0 -10.59274,-4.749544 -10.59274,-10.592736 0,-5.843192 4.74955,-10.592738 10.59274,-10.592738 z m 0,0"
         fill="none"
         stroke="#212121"
         stroke-linecap="round"
         stroke-linejoin="round"
         stroke-width="3"
         id="path230" />
    </g>
    <path
       d="m 35.0625,34.898438 h 10.582031 c 0.367188,0 0.660157,0.296874 0.660157,0.664062 v 5.289062 c 0,0.367188 -0.292969,0.664063 -0.660157,0.664063 H 35.0625 c -0.367188,0 -0.664062,-0.296875 -0.664062,-0.664063 V 35.5625 c 0,-0.367188 0.296874,-0.664062 0.664062,-0.664062 z m 0,0"
       fill-opacity="0.235294"
       id="path234" />
    <path
       d="m 11.906256,30.929689 h 6.617191 c 0.730469,0 1.320313,0.59375 1.320313,1.32422 v 2.644532 c 0,0.730469 -0.589844,1.32422 -1.320313,1.32422 h -6.617191 c -0.730469,0 -1.320313,-0.593751 -1.320313,-1.32422 v -2.644532 c 0,-0.73047 0.589844,-1.32422 1.320313,-1.32422 z m 0,0"
       fill="none"
       stroke="#212121"
       stroke-linecap="round"
       stroke-linejoin="round"
       stroke-width="0.375036"
       id="path236" />
    <path
       d="m 11.90625,31.589844 h 6.617188 c 0.363281,0 0.660156,0.296875 0.660156,0.664062 v 2.644532 c 0,0.367187 -0.296875,0.664062 -0.660156,0.664062 H 11.90625 c -0.363281,0 -0.660156,-0.296875 -0.660156,-0.664062 v -2.644532 c 0,-0.367187 0.296875,-0.664062 0.660156,-0.664062 z m 0,0"
       fill="url(#F)"
       id="path238"
       style="fill:url(#F)" />
    <path
       d="m 12.457031,31.921875 h 5.515625 c 0.304688,0 0.550782,0.246094 0.550782,0.550781 v 2.207032 c 0,0.304687 -0.246094,0.550781 -0.550782,0.550781 h -5.515625 c -0.304687,0 -0.550781,-0.246094 -0.550781,-0.550781 v -2.207032 c 0,-0.304687 0.246094,-0.550781 0.550781,-0.550781 z m 0,0"
       fill="url(#H)"
       id="path240"
       style="fill:url(#H)" />
    <path
       d="M 15.214844,31.589844 H 15.875 V 35.5625 h -0.660156 z m 0,0"
       fill="#ef5350"
       id="path242" />
    <path
       d="m 11.90625,31.589844 c -0.367188,0 -0.660156,0.296875 -0.660156,0.664062 v 2.421875 c 1.691406,-1.074219 4.320312,-1.761719 7.277344,-1.761719 0.222656,0 0.441406,0.0039 0.660156,0.01172 v -0.671875 c 0,-0.367187 -0.292969,-0.664062 -0.660156,-0.664062 z m 0,0"
       fill="#ffffff"
       fill-opacity="0.196078"
       id="path244" />
    <path
       d="m 11.906256,37.546877 h 6.617191 c 0.730469,0 1.320313,0.589844 1.320313,1.320313 v 2.648439 c 0,0.730469 -0.589844,1.320313 -1.320313,1.320313 h -6.617191 c -0.730469,0 -1.320313,-0.589844 -1.320313,-1.320313 V 38.86719 c 0,-0.730469 0.589844,-1.320313 1.320313,-1.320313 z m 0,0"
       fill="none"
       stroke="#212121"
       stroke-linecap="round"
       stroke-linejoin="round"
       stroke-width="0.375036"
       id="path246" />
    <path
       d="m 11.90625,38.207031 h 6.617188 c 0.363281,0 0.660156,0.296875 0.660156,0.660157 v 2.648437 c 0,0.363281 -0.296875,0.660156 -0.660156,0.660156 H 11.90625 c -0.363281,0 -0.660156,-0.296875 -0.660156,-0.660156 v -2.648437 c 0,-0.363282 0.296875,-0.660157 0.660156,-0.660157 z m 0,0"
       fill="url(#I)"
       id="path248"
       style="fill:url(#I)" />
    <path
       d="m 12.457031,38.539062 h 5.515625 c 0.304688,0 0.550782,0.246094 0.550782,0.550782 v 2.203125 c 0,0.304687 -0.246094,0.550781 -0.550782,0.550781 h -5.515625 c -0.304687,0 -0.550781,-0.246094 -0.550781,-0.550781 v -2.203125 c 0,-0.304688 0.246094,-0.550782 0.550781,-0.550782 z m 0,0"
       fill="url(#J)"
       id="path250"
       style="fill:url(#J)" />
    <path
       d="m 13.890625,38.207031 h 0.664063 v 3.96875 h -0.664063 z m 0,0"
       fill="#66bb6a"
       id="path252" />
    <path
       d="m 11.90625,38.207031 c -0.367188,0 -0.660156,0.292969 -0.660156,0.660157 v 2.421874 c 1.691406,-1.074218 4.320312,-1.757812 7.277344,-1.757812 0.222656,0 0.441406,0.0039 0.660156,0.01172 v -0.675781 c 0,-0.367188 -0.292969,-0.660157 -0.660156,-0.660157 z m 0,0"
       fill="#ffffff"
       fill-opacity="0.196078"
       id="path254" />
    <path
       d="m 10.914068,8.4374897 h 41.675803 c 0.550781,0 0.992187,0.445314 0.992187,0.992189 V 24.64453 c 0,0.550781 -0.441406,0.992188 -0.992187,0.992188 H 10.914068 c -0.546875,0 -0.992188,-0.441407 -0.992188,-0.992188 V 9.4296787 c 0,-0.546875 0.445313,-0.992189 0.992188,-0.992189 z m 0,0"
       fill="none"
       stroke="#212121"
       stroke-linecap="round"
       stroke-linejoin="round"
       stroke-width="0.375036"
       id="path256" />
    <path
       d="m 29.105469,31.261719 c -0.546875,0 -0.992188,0.441406 -0.992188,0.992187 v 0.359375 c 0,-0.550781 0.445313,-0.992187 0.992188,-0.992187 h 22.492187 c 0.550782,0 0.992188,0.441406 0.992188,0.992187 v -0.359375 c 0,-0.550781 -0.441406,-0.992187 -0.992188,-0.992187 z m 0,0"
       fill="#ffffff"
       fill-opacity="0.392157"
       id="path258" />
    <path
       d="m 29.105469,45.179688 c -0.546875,0 -0.992188,-0.441407 -0.992188,-0.992188 v -0.359375 c 0,0.550781 0.445313,0.992187 0.992188,0.992187 h 22.492187 c 0.550782,0 0.992188,-0.441406 0.992188,-0.992187 V 44.1875 c 0,0.550781 -0.441406,0.992188 -0.992188,0.992188 z m 0,0"
       fill-opacity="0.235294"
       id="path260" />
    <path
       d="m 35.0625,34.898438 c -0.367188,0 -0.664062,0.296874 -0.664062,0.664062 v 3.957031 c 1.917968,-2 5.050781,-3.296875 8.601562,-3.296875 1.15625,0 2.265625,0.136719 3.304688,0.390625 V 35.5625 c 0,-0.367188 -0.292969,-0.664062 -0.660157,-0.664062 z m 0,0"
       fill="#ffffff"
       fill-opacity="0.078431"
       id="path262" />
  </g>
</svg>
